<svg width="120" height="120" viewBox="0 0 120 120" fill="none" xmlns="http://www.w3.org/2000/svg">
<path d="M117.558 66.4368L117.544 66.4579C115.217 69.0804 114.493 72.7576 115.639 76.0691V76.0762C117.249 80.7236 115.126 85.8351 110.703 87.9865C107.546 89.5193 105.465 92.634 105.254 96.1353V96.1494C104.958 101.05 101.049 104.959 96.148 105.254H96.1339C92.6323 105.465 89.5175 107.547 87.9847 110.703C85.8401 115.126 80.7213 117.249 76.0736 115.639C72.7618 114.493 69.0845 115.217 66.4618 117.544L66.4407 117.559C62.7703 120.814 57.2437 120.814 53.5663 117.559L53.5453 117.544C50.9226 115.217 47.2452 114.493 43.9334 115.639H43.9264C39.2787 117.249 34.1669 115.126 32.0154 110.703C30.4825 107.547 27.3677 105.465 23.8661 105.254H23.852C18.9512 104.959 15.0417 101.05 14.7464 96.1494V96.1353C14.5355 92.634 12.4542 89.5193 9.29716 87.9865C4.87446 85.8421 2.751 80.7236 4.36118 76.0762C5.50728 72.7646 4.78305 69.0874 2.45569 66.4649L2.44163 66.4438C-0.813875 62.7737 -0.813875 57.2474 2.44163 53.5702L2.45569 53.5491C4.78305 50.9266 5.50728 47.2494 4.36118 43.9379V43.9309C2.751 39.2834 4.87446 34.172 9.29716 32.0205C12.4542 30.4878 14.5355 27.3731 14.7464 23.8717V23.8576C15.0417 18.9571 18.9512 15.0479 23.852 14.7526H23.8661C27.3677 14.5417 30.4825 12.4605 32.0154 9.30365C34.1669 4.87418 39.2787 2.75787 43.9264 4.36092C47.2382 5.50696 50.9155 4.78277 53.5382 2.45554L53.5593 2.44148C57.2297 -0.813828 62.7563 -0.813828 66.4337 2.44148L66.4548 2.45554C69.0774 4.78277 72.7548 5.50696 76.0666 4.36092H76.0736C80.7213 2.75084 85.8331 4.87418 87.9847 9.29662C89.5175 12.4535 92.6323 14.5346 96.1339 14.7456H96.148C101.049 15.0409 104.958 18.95 105.254 23.8506V23.8647C105.465 27.366 107.546 30.4807 110.703 32.0135C115.126 34.1579 117.249 39.2764 115.639 43.9238C114.493 47.2354 115.217 50.9126 117.544 53.5351L117.558 53.5562C120.814 57.2404 120.814 62.7596 117.558 66.4368Z" fill="#683292"/>
</svg>
