<svg width="141" height="141" viewBox="0 0 141 141" fill="none" xmlns="http://www.w3.org/2000/svg">
<path d="M65.3848 10.303L66.0568 7.93702V6.15902L67.0928 5.73902L68.9128 0.405024L72.5388 0.405024L74.7928 6.67702L75.8708 8.66502V10.303H73.3928L72.6928 8.06302L68.6188 8.06302L68.0168 10.303H65.3848ZM69.5428 5.90702H71.9228L70.8588 2.70102H70.5648L69.5428 5.90702Z" fill="#0F0200"/>
<path d="M85.462 12.0302L85.8301 4.02705L85.8813 2.57862L86.153 1.78377L88.6677 2.6509L87.9858 10.0572L88.2505 10.1484L91.8442 3.74623L95.325 4.94653L94.5961 10.4558L94.2328 12.2113L94.4975 12.3026L98.475 6.03272L100.963 6.89073L100.692 7.68559L99.8463 8.86019L95.2693 15.412L91.8414 14.23L92.8417 6.84466L92.5637 6.74882L91.7909 8.2742L88.89 13.2123L85.462 12.0302Z" fill="#0F0200"/>
<path d="M103.552 20.0824L105.53 18.626L106.619 17.2206L107.693 17.5267L112.394 14.4313L115.25 16.6646L113.184 23.0106L112.816 25.246L111.813 26.5408L109.86 25.0146L110.681 22.8128L107.471 20.3036L105.625 21.7034L103.552 20.0824ZM109.52 19.1685L111.395 20.6343L112.52 17.4448L112.289 17.2637L109.52 19.1685Z" fill="#0F0200"/>
<path d="M118.605 34.4043L125.008 30.2027L126.037 29.1922L126.892 28.9661L129.335 32.7215C129.706 33.2927 129.95 33.864 130.065 34.4356C130.194 35.0099 130.134 35.5683 129.886 36.1108C129.65 36.656 129.166 37.1693 128.432 37.6507C127.769 38.0859 127.152 38.318 126.58 38.3468C126.017 38.3706 125.494 38.2339 125.011 37.9367L124.959 38.1385L124.263 40.2528L124.101 41.3135L123.399 41.7744L121.681 39.1338L123.106 35.8547L122.472 34.8807L121.864 35.2801L120.769 36.1655L119.979 36.5167L118.605 34.4043ZM124.31 33.6747L125.058 34.8248C125.323 35.2317 125.608 35.5077 125.914 35.653C126.228 35.7931 126.591 35.7275 127.005 35.4561C127.294 35.2666 127.47 35.0671 127.534 34.8576C127.606 34.6429 127.597 34.4146 127.506 34.1726C127.421 33.9385 127.289 33.6845 127.111 33.4107L126.317 32.1901L124.31 33.6747Z" fill="#0F0200"/>
<path d="M127.598 51.6049L135.02 49.7171L136.308 49.1005L137.204 49.1614L138.224 53.2069C138.388 53.8585 138.482 54.499 138.506 55.1286C138.542 55.7648 138.451 56.3608 138.235 56.9166C138.022 57.4814 137.637 57.9789 137.081 58.4091C136.528 58.8484 135.754 59.1946 134.759 59.4477C133.764 59.7008 132.91 59.7688 132.197 59.6516C131.493 59.5321 130.904 59.2773 130.43 58.8874C129.957 58.4975 129.575 58.0166 129.287 57.4447C129.001 56.8819 128.778 56.2838 128.618 55.6503L127.598 51.6049ZM130.392 53.5234L130.789 55.0981C130.99 55.8945 131.352 56.4525 131.875 56.772C132.407 57.0892 133.153 57.1259 134.112 56.882C135.071 56.6381 135.681 56.2518 135.942 55.7231C136.215 55.2011 136.252 54.5464 136.053 53.759L135.656 52.1843L130.392 53.5234Z" fill="#0F0200"/>
<path d="M130.696 70.9409L138.54 69.346L139.956 69.0424L140.793 69.1121L140.574 71.7631L133.231 72.908L133.208 73.187L140.298 75.1117L139.995 78.7812L134.478 79.4178L132.688 79.4936L132.665 79.7726L139.721 82.1019L139.505 84.725L138.668 84.6554L137.321 84.1218L129.843 81.2798L130.142 77.6661L137.543 76.8351L137.567 76.5421L135.899 76.1644L130.398 74.5546L130.696 70.9409Z" fill="#0F0200"/>
<path d="M125.766 94.229L132.786 97.3223L134.124 97.7584L134.836 98.2254L133.822 100.548L124.752 96.5512L125.766 94.229Z" fill="#0F0200"/>
<path d="M117.435 108.529L123.057 113.728L124.274 114.472L124.702 115.249L123.179 116.91L118.472 116.41L117.165 116.116L117.071 116.22L120.72 119.594L118.932 121.545L118.315 120.974L117.382 119.921L111.759 114.722L113.244 113.101L119.237 113.856L119.331 113.753L118.714 113.183L115.618 110.511L117.435 108.529Z" fill="#0F0200"/>
<path d="M102.666 121.818L106.299 128.56L107.209 129.659L107.361 130.532L105.381 131.609L101.09 129.607L99.9483 128.905L99.8253 128.972L102.183 133.347L99.8579 134.611L99.4595 133.871L98.9185 132.572L95.2862 125.83L97.2173 124.78L102.642 127.44L102.765 127.374L102.367 126.634L100.305 123.102L102.666 121.818Z" fill="#0F0200"/>
<path d="M81.0859 130.125L82.3433 137.693L82.7108 139.051L82.7104 139.903L80.2112 140.322L78.5868 130.544L81.0859 130.125Z" fill="#0F0200"/>
<path d="M64.6103 130.934L63.3553 138.489L63.402 139.916L62.9882 140.698L60.7652 140.326L58.6002 136.102L58.1279 134.844L57.9898 134.821L57.1753 139.724L54.5657 139.287L54.7033 138.458L55.0709 137.1L56.3259 129.546L58.4936 129.909L61.1517 135.351L61.2897 135.374L61.4274 134.546L61.9593 130.49L64.6103 130.934Z" fill="#0F0200"/>
<path d="M41.4788 123.445C42.1102 123.788 42.6757 124.175 43.1751 124.606C43.6618 125.041 44.034 125.54 44.2915 126.105C44.5409 126.666 44.6314 127.304 44.5631 128.021C44.4947 128.739 44.2149 129.553 43.7235 130.465C43.2498 131.344 42.7268 132 42.1545 132.433C41.5778 132.874 40.9814 133.144 40.3653 133.245C39.741 133.341 39.1247 133.314 38.5164 133.164C37.9 133.01 37.317 132.783 36.7676 132.484C36.3658 132.266 36.0284 132.056 35.7553 131.854C35.4822 131.653 35.2281 131.446 34.9929 131.233L33.8447 129.35L35.735 127.907L37.9353 130.346C38.329 130.56 38.7359 130.681 39.1562 130.707C39.5684 130.73 39.9699 130.624 40.3608 130.39C40.7391 130.16 41.0832 129.758 41.3931 129.183C41.8934 128.254 42.0403 127.489 41.8339 126.889C41.6149 126.291 41.1446 125.797 40.423 125.405C40.054 125.204 39.7581 125.064 39.5354 124.986C39.3001 124.911 39.1184 124.855 38.9903 124.817L38.4856 125.754L40.0478 126.603L39.065 128.427L35.1535 126.301L35.4166 125.488L36.2384 124.612L37.6329 122.024C37.7408 122.04 37.9768 122.094 38.3408 122.185C38.6967 122.273 39.1488 122.417 39.697 122.62C40.2371 122.818 40.831 123.093 41.4788 123.445Z" fill="#0F0200"/>
<path d="M25.5412 110.63C25.97 111.098 26.3348 111.6 26.6356 112.135C26.9296 112.677 27.1034 113.253 27.1572 113.865C27.2047 114.469 27.0798 115.099 26.7824 115.756C26.4851 116.412 25.9561 117.092 25.1954 117.795C24.4896 118.448 23.8022 118.893 23.1333 119.13C22.4645 119.367 21.8285 119.447 21.2254 119.369C20.6222 119.291 20.073 119.106 19.5776 118.814C19.069 118.522 18.6255 118.169 18.2472 117.756C17.9255 117.405 17.6408 117.039 17.3929 116.658C17.1388 116.27 16.9766 115.969 16.9064 115.754L16.7918 113.744L19.1336 113.294L19.8465 115.896C20.2943 116.384 20.8337 116.648 21.4648 116.688C22.089 116.733 22.7335 116.449 23.3982 115.834C23.871 115.397 24.1791 114.96 24.3224 114.522C24.4594 114.077 24.4609 113.644 24.3268 113.221C24.1927 112.799 23.9522 112.398 23.6054 112.02C23.2396 111.621 22.8966 111.309 22.5764 111.084C22.2493 110.865 21.9435 110.69 21.6589 110.559C21.3675 110.434 21.089 110.317 20.8233 110.207L22.5502 108.61C22.9217 108.711 23.3554 108.901 23.8513 109.18C24.3473 109.459 24.9106 109.942 25.5412 110.63Z" fill="#0F0200"/>
<path d="M15.3624 94.4858C15.6014 95.0332 15.7708 95.596 15.8706 96.1742C15.958 96.7476 15.9224 97.3191 15.7638 97.8888C15.6015 98.4499 15.2712 98.988 14.7732 99.5032C14.2713 100.01 13.5464 100.472 12.5983 100.89C11.6503 101.308 10.8207 101.53 10.1097 101.558C9.39499 101.577 8.77715 101.457 8.25622 101.197C7.73155 100.928 7.2931 100.565 6.94087 100.109C6.57636 99.647 6.27458 99.1425 6.03553 98.5951C5.79647 98.0477 5.63322 97.4873 5.54576 96.9139C5.45457 96.3319 5.49015 95.7604 5.65251 95.1993C5.81112 94.6297 6.14135 94.0915 6.64318 93.5849C7.14127 93.0696 7.86008 92.605 8.7996 92.1911C9.73912 91.7772 10.5662 91.5606 11.281 91.5415C11.992 91.5138 12.6098 91.6342 13.1345 91.9028C13.6554 92.1629 14.0981 92.5236 14.4626 92.9852C14.8234 93.4382 15.1233 93.9384 15.3624 94.4858ZM13.1844 95.4454C12.908 94.8124 12.5109 94.4162 11.9932 94.2568C11.4754 94.0973 10.7639 94.2171 9.85853 94.616C8.95318 95.0149 8.38357 95.4596 8.1497 95.9502C7.91583 96.4408 7.9371 97.0026 8.2135 97.6355C8.48617 98.2599 8.88565 98.65 9.41194 98.8056C9.93823 98.9613 10.6455 98.8435 11.5338 98.4521C12.4221 98.0608 12.9874 97.6179 13.2298 97.1235C13.4722 96.6292 13.4571 96.0698 13.1844 95.4454Z" fill="#0F0200"/>
<path d="M10.958 80.5432L3.32635 81.1784L1.95419 81.5735L1.09292 81.3502L0.873069 78.6853L5.94914 75.5093L5.92612 75.2302L0.437981 73.4112L0.208927 70.6346L1.03452 70.4254L2.3854 70.4535L10.0728 69.8136L10.2812 72.3391L9.0918 72.3959L5.19926 72.7199L5.21192 72.8734L6.59733 73.32L9.04482 74.3806L9.18295 76.0549L5.65852 78.287L5.67003 78.4265L6.80013 78.3324L10.737 77.8643L10.958 80.5432Z" fill="#0F0200"/>
<path d="M11.2506 59.6014L3.82894 57.7136L2.39013 57.6366L1.6445 57.158L2.7397 52.8139C2.90626 52.1533 3.15973 51.5869 3.5001 51.1149C3.83372 50.6316 4.28354 50.2982 4.84956 50.1147C5.40882 49.9199 6.11358 49.9306 6.96384 50.1469C7.8141 50.3632 8.44576 50.702 8.85883 51.1634C9.26286 51.6225 9.4936 52.1772 9.55105 52.8274C9.61078 53.4686 9.54482 54.1693 9.35316 54.9295L8.97669 56.4228L9.68222 56.6022L11.0732 56.8116L11.8667 57.1579L11.2506 59.6014ZM6.84652 55.8809L7.18192 54.5506C7.30057 54.08 7.30933 53.6825 7.2082 53.3583C7.09802 53.0317 6.80323 52.8074 6.32383 52.6855C5.98916 52.6004 5.7233 52.605 5.52626 52.6993C5.32017 52.7913 5.15919 52.9526 5.04331 53.1832C4.92972 53.4047 4.83299 53.6738 4.75313 53.9906L4.39719 55.4024L6.84652 55.8809Z" fill="#0F0200"/>
<path d="M17.4977 41.7129L15.886 39.8515L14.3995 38.876L14.6132 37.7771L11.146 33.3249L13.1231 30.2853L19.5958 31.837L21.8457 32.024L23.2151 32.9227L21.864 35L19.6096 34.3578L17.3882 37.7729L18.9327 39.5065L17.4977 41.7129ZM16.0895 35.8155L17.3872 33.8204L14.1267 32.9533L13.9664 33.1998L16.0895 35.8155Z" fill="#0F0200"/>
<path d="M30.2586 25.5917L25.568 19.5383L24.4899 18.6042L24.196 17.7677L25.9717 16.3795L30.5321 17.6477L31.7733 18.1524L31.8836 18.0661L28.8394 14.1375L30.9239 12.5078L31.4384 13.1718L32.1857 14.3647L36.8763 20.418L35.1447 21.7718L29.3578 20.0407L29.2475 20.127L29.762 20.7909L32.3763 23.9361L30.2586 25.5917Z" fill="#0F0200"/>
<path d="M50.1012 13.8574L48.7428 9.88308L43.8848 6.40474L43.6132 5.60989L46.3926 4.65148L49.0041 7.09777L49.2688 7.0065L49.8205 3.46943L52.5999 2.51102L52.8715 3.30588L51.0994 9.15932L51.6361 10.4699L52.51 13.0267L50.1012 13.8574Z" fill="#0F0200"/>
</svg>
