<svg width="161" height="160" viewBox="0 0 161 160" fill="none" xmlns="http://www.w3.org/2000/svg">
<path d="M74.9818 10L75.6538 7.634V5.856L76.6898 5.436L78.5098 0.102L82.1358 0.102L84.3898 6.374L85.4678 8.362V10H82.9898L82.2898 7.76L78.2158 7.76L77.6138 10H74.9818ZM79.1398 5.604L81.5198 5.604L80.4558 2.398L80.1618 2.398L79.1398 5.604Z" fill="#0F0200"/>
<path d="M98.2459 12.2776L98.614 4.27441L98.6652 2.82598L98.9368 2.03112L101.452 2.89826L100.77 10.3045L101.034 10.3958L104.628 3.99359L108.109 5.19388L107.38 10.7032L107.017 12.4587L107.281 12.5499L111.259 6.28008L113.747 7.13809L113.475 7.93295L112.63 9.10754L108.053 15.6594L104.625 14.4774L105.626 7.09202L105.348 6.99618L104.575 8.52155L101.674 13.4596L98.2459 12.2776Z" fill="#0F0200"/>
<path d="M119.135 21.8781L121.113 20.4218L122.202 19.0164L123.276 19.3225L127.977 16.2271L130.833 18.4604L128.767 24.8064L128.399 27.0418L127.396 28.3366L125.443 26.8103L126.264 24.6086L123.054 22.0994L121.208 23.4992L119.135 21.8781ZM125.103 20.9642L126.978 22.4301L128.103 19.2406L127.872 19.0595L125.103 20.9642Z" fill="#0F0200"/>
<path d="M136.301 38.5225L142.703 34.321L143.733 33.3105L144.588 33.0843L147.03 36.8398C147.402 37.4109 147.646 37.9823 147.761 38.5539C147.89 39.1281 147.83 39.6865 147.582 40.2291C147.346 40.7743 146.862 41.2876 146.128 41.7689C145.465 42.2042 144.848 42.4362 144.276 42.4651C143.713 42.4888 143.19 42.3521 142.707 42.0549L142.654 42.2568L141.959 44.3711L141.797 45.4318L141.095 45.8926L139.377 43.2521L140.802 39.973L140.168 38.9989L139.559 39.3983L138.465 40.2838L137.675 40.635L136.301 38.5225ZM142.006 37.793L142.754 38.9431C143.018 39.3499 143.304 39.626 143.61 39.7712C143.923 39.9114 144.287 39.8457 144.701 39.5743C144.989 39.3849 145.166 39.1854 145.23 38.9758C145.302 38.7612 145.293 38.5329 145.202 38.2909C145.116 38.0567 144.985 37.8028 144.807 37.5289L144.013 36.3084L142.006 37.793Z" fill="#0F0200"/>
<path d="M146.575 58.6631L153.997 56.7753L155.285 56.1587L156.182 56.2197L157.201 60.2651C157.366 60.9167 157.46 61.5573 157.484 62.1868C157.519 62.823 157.429 63.419 157.213 63.9748C156.999 64.5396 156.614 65.0371 156.059 65.4673C155.505 65.9067 154.731 66.2528 153.736 66.5059C152.741 66.759 151.887 66.827 151.174 66.7098C150.47 66.5903 149.881 66.3355 149.408 65.9456C148.934 65.5557 148.553 65.0748 148.264 64.503C147.978 63.9402 147.755 63.342 147.595 62.7085L146.575 58.6631ZM149.369 60.5816L149.766 62.1563C149.967 62.9527 150.329 63.5107 150.852 63.8302C151.385 64.1474 152.13 64.1841 153.089 63.9402C154.048 63.6963 154.658 63.31 154.919 62.7813C155.192 62.2593 155.229 61.6046 155.031 60.8173L154.634 59.2425L149.369 60.5816Z" fill="#0F0200"/>
<path d="M149.934 81.2638L157.778 79.6689L159.193 79.3653L160.03 79.435L159.812 82.086L152.469 83.2309L152.446 83.5099L159.536 85.4346L159.233 89.1041L153.716 89.7407L151.925 89.8165L151.902 90.0955L158.959 92.4248L158.742 95.0479L157.905 94.9783L156.559 94.4447L149.081 91.6027L149.379 87.989L156.78 87.158L156.805 86.865L155.136 86.4873L149.636 84.8776L149.934 81.2638Z" fill="#0F0200"/>
<path d="M144.197 107.658L151.218 110.752L152.555 111.188L153.268 111.655L152.254 113.977L143.183 109.981L144.197 107.658Z" fill="#0F0200"/>
<path d="M134.146 124.586L139.768 129.785L140.985 130.529L141.413 131.306L139.89 132.967L135.183 132.467L133.876 132.174L133.782 132.277L137.431 135.651L135.643 137.602L135.026 137.031L134.093 135.978L128.47 130.779L129.955 129.158L135.948 129.913L136.042 129.81L135.426 129.24L132.33 126.568L134.146 124.586Z" fill="#0F0200"/>
<path d="M116.856 139.849L120.488 146.59L121.398 147.689L121.551 148.562L119.57 149.639L115.28 147.637L114.138 146.935L114.015 147.002L116.372 151.377L114.048 152.641L113.649 151.901L113.108 150.602L109.476 143.86L111.407 142.811L116.832 145.471L116.955 145.404L116.556 144.664L114.494 141.132L116.856 139.849Z" fill="#0F0200"/>
<path d="M92.1865 149.209L93.4438 156.778L93.8113 158.136L93.8109 158.987L91.3118 159.406L89.6873 149.628L92.1865 149.209Z" fill="#0F0200"/>
<path d="M72.5808 150.008L71.3257 157.562L71.3725 158.99L70.9586 159.772L68.7356 159.4L66.5706 155.176L66.0983 153.918L65.9602 153.895L65.1457 158.798L62.5361 158.36L62.6738 157.532L63.0413 156.174L64.2963 148.619L66.4641 148.983L69.1221 154.425L69.2602 154.448L69.3979 153.619L69.9298 149.564L72.5808 150.008Z" fill="#0F0200"/>
<path d="M46.4237 141.475C47.0552 141.818 47.6206 142.205 48.12 142.636C48.6068 143.071 48.9789 143.571 49.2364 144.135C49.4858 144.696 49.5763 145.335 49.508 146.052C49.4397 146.769 49.1598 147.583 48.6684 148.495C48.1947 149.375 47.6718 150.031 47.0995 150.463C46.5227 150.904 45.9263 151.174 45.3102 151.275C44.6859 151.371 44.0696 151.344 43.4613 151.194C42.8449 151.04 42.2619 150.813 41.7125 150.515C41.3107 150.296 40.9733 150.086 40.7002 149.885C40.4271 149.683 40.173 149.476 39.9378 149.263L38.7896 147.38L40.6799 145.938L42.8803 148.377C43.2739 148.591 43.6808 148.711 44.1011 148.738C44.5133 148.76 44.9148 148.654 45.3057 148.42C45.684 148.191 46.0281 147.788 46.338 147.213C46.8383 146.284 46.9852 145.52 46.7788 144.919C46.5598 144.322 46.0895 143.827 45.3679 143.435C44.9989 143.234 44.7031 143.095 44.4803 143.016C44.245 142.941 44.0633 142.885 43.9352 142.847L43.4305 143.784L44.9927 144.633L44.0099 146.457L40.0984 144.331L40.3615 143.518L41.1833 142.642L42.5778 140.054C42.6857 140.07 42.9217 140.124 43.2858 140.216C43.6416 140.303 44.0937 140.448 44.642 140.65C45.182 140.848 45.7759 141.123 46.4237 141.475Z" fill="#0F0200"/>
<path d="M27.9215 126.639C28.3503 127.107 28.7151 127.608 29.0159 128.144C29.3099 128.685 29.4838 129.262 29.5376 129.873C29.5851 130.478 29.4601 131.108 29.1628 131.764C28.8654 132.421 28.3364 133.1 27.5757 133.804C26.8699 134.456 26.1826 134.901 25.5137 135.138C24.8448 135.375 24.2088 135.455 23.6057 135.377C23.0026 135.299 22.4533 135.114 21.9579 134.822C21.4493 134.53 21.0059 134.177 20.6275 133.765C20.3059 133.414 20.0211 133.048 19.7733 132.667C19.5191 132.279 19.3569 131.978 19.2867 131.763L19.1721 129.752L21.5139 129.303L22.2269 131.904C22.6746 132.393 23.214 132.657 23.8451 132.696C24.4693 132.742 25.1138 132.457 25.7785 131.843C26.2513 131.405 26.5594 130.968 26.7028 130.53C26.8398 130.086 26.8412 129.652 26.7071 129.23C26.573 128.807 26.3325 128.407 25.9857 128.028C25.6199 127.629 25.277 127.317 24.9567 127.092C24.6297 126.873 24.3238 126.698 24.0393 126.568C23.7478 126.443 23.4693 126.325 23.2036 126.215L24.9305 124.618C25.302 124.72 25.7357 124.91 26.2317 125.189C26.7276 125.467 27.2909 125.951 27.9215 126.639Z" fill="#0F0200"/>
<path d="M16.0143 107.794C16.2534 108.342 16.4228 108.905 16.5225 109.483C16.61 110.056 16.5744 110.628 16.4158 111.197C16.2534 111.758 15.9232 112.297 15.4251 112.812C14.9233 113.318 14.1983 113.781 13.2503 114.198C12.3022 114.616 11.4727 114.839 10.7617 114.866C10.0469 114.886 9.42909 114.765 8.90816 114.505C8.38349 114.236 7.94504 113.874 7.59281 113.417C7.22831 112.956 6.92653 112.451 6.68747 111.904C6.44842 111.356 6.28516 110.796 6.19771 110.222C6.10652 109.64 6.1421 109.069 6.30445 108.508C6.46307 107.938 6.79329 107.4 7.29512 106.893C7.79322 106.378 8.51202 105.914 9.45154 105.5C10.3911 105.086 11.2182 104.869 11.9329 104.85C12.6439 104.822 13.2618 104.943 13.7864 105.211C14.3074 105.471 14.7501 105.832 15.1146 106.294C15.4754 106.747 15.7753 107.247 16.0143 107.794ZM13.8364 108.754C13.5599 108.121 13.1629 107.725 12.6451 107.565C12.1274 107.406 11.4158 107.526 10.5105 107.924C9.60512 108.323 9.03551 108.768 8.80164 109.259C8.56777 109.749 8.58904 110.311 8.86545 110.944C9.13812 111.568 9.5376 111.958 10.0639 112.114C10.5902 112.27 11.2975 112.152 12.1857 111.761C13.074 111.369 13.6393 110.926 13.8817 110.432C14.1242 109.938 14.109 109.378 13.8364 108.754Z" fill="#0F0200"/>
<path d="M10.846 90.7345L3.21435 91.3697L1.8422 91.7648L0.980918 91.5415L0.761072 88.8766L5.83714 85.7006L5.81412 85.4215L0.325984 83.6025L0.0969295 80.8259L0.922525 80.6167L2.2734 80.6448L9.96082 80.0049L10.1692 82.5303L8.97981 82.5872L5.08727 82.9112L5.09993 83.0647L6.48534 83.5113L8.93283 84.5719L9.07095 86.2462L5.54653 88.4783L5.55804 88.6178L6.68813 88.5237L10.625 88.0556L10.846 90.7345Z" fill="#0F0200"/>
<path d="M11.4075 66.6597L3.98579 64.7719L2.54698 64.6948L1.80135 64.2163L2.89655 59.8722C3.06311 59.2115 3.31658 58.6452 3.65696 58.1732C3.99057 57.6899 4.44039 57.3565 5.00642 57.173C5.56567 56.9782 6.27043 56.9889 7.12069 57.2052C7.97095 57.4215 8.60262 57.7603 9.01569 58.2217C9.41971 58.6808 9.65045 59.2355 9.7079 59.8857C9.76764 60.5269 9.70167 61.2276 9.51002 61.9878L9.13354 63.481L9.83908 63.6605L11.2301 63.8699L12.0235 64.2161L11.4075 66.6597ZM7.00337 62.9392L7.33878 61.6088C7.45742 61.1382 7.46618 60.7408 7.36505 60.4165C7.25488 60.09 6.96009 59.8657 6.48069 59.7438C6.14601 59.6586 5.88015 59.6632 5.68311 59.7576C5.47703 59.8496 5.31604 60.0109 5.20017 60.2415C5.08657 60.4629 4.98985 60.7321 4.90999 61.0488L4.55405 62.4607L7.00337 62.9392Z" fill="#0F0200"/>
<path d="M18.9738 45.7758L17.3621 43.9144L15.8756 42.9389L16.0893 41.84L12.6221 37.3879L14.5992 34.3483L21.0719 35.8999L23.3218 36.087L24.6912 36.9857L23.3401 39.0629L21.0857 38.4207L18.8643 41.8359L20.4088 43.5695L18.9738 45.7758ZM17.5656 39.8784L18.8633 37.8833L15.6028 37.0163L15.4425 37.2627L17.5656 39.8784Z" fill="#0F0200"/>
<path d="M33.8627 27.3469L29.172 21.2935L28.0939 20.3594L27.8 19.5229L29.5757 18.1347L34.1361 19.4029L35.3773 19.9075L35.4876 19.8213L32.4434 15.8927L34.5279 14.263L35.0425 14.927L35.7897 16.1199L40.4803 22.1732L38.7487 23.527L32.9618 21.7959L32.8515 21.8822L33.3661 22.5461L35.9803 25.6913L33.8627 27.3469Z" fill="#0F0200"/>
<path d="M56.578 14.0618L55.2197 10.0875L50.3617 6.60922L50.09 5.81436L52.8694 4.85595L55.4809 7.30224L55.7456 7.21097L56.2973 3.67391L59.0767 2.7155L59.3484 3.51035L57.5762 9.36379L58.1129 10.6744L58.9868 13.2312L56.578 14.0618Z" fill="#0F0200"/>
</svg>
