<svg width="100" height="100" viewBox="0 0 100 100" fill="none" xmlns="http://www.w3.org/2000/svg">
<path d="M44.9648 2.4082C47.834 -0.13614 52.1549 -0.136136 55.0303 2.40918L55.0557 2.43164L55.0762 2.44434C57.3738 4.46517 60.5733 5.10357 63.4697 4.13379H63.4785L63.5586 4.10645C67.0782 2.8873 70.9386 4.40705 72.7061 7.64746L72.8711 7.96582C74.2275 10.759 76.984 12.6005 80.082 12.7871L80.0967 12.7881H80.1055C83.8117 13.0173 86.7903 15.8901 87.1826 19.5488L87.2109 19.8877V19.9023L87.2119 19.917C87.3927 22.918 89.1268 25.5984 91.7744 26.9961L92.0342 27.1279C95.4918 28.8044 97.1523 32.8061 95.8936 36.4395C94.8838 39.3571 95.515 42.5958 97.5547 44.915L97.5684 44.9355L97.5908 44.9609C100.137 47.8421 100.136 52.1573 97.5908 55.0322L97.5684 55.0586L97.5586 55.0742C95.5355 57.3712 94.8963 60.5715 95.8652 63.4688V63.4814L95.8936 63.5605C97.1521 67.1934 95.4918 71.1896 92.0332 72.8721C89.24 74.2284 87.3985 76.9852 87.2119 80.083L87.2109 80.0977V80.1123C86.9719 83.9312 83.9254 86.9757 80.1055 87.2119H80.0967L80.082 87.2129C77.0806 87.3937 74.3997 89.1276 73.002 91.7754L72.8711 92.0342C71.247 95.3834 67.4401 97.0465 63.9004 96.0029L63.5586 95.8936L63.2822 95.8027C60.4377 94.9244 57.3285 95.5791 55.082 97.5547L55.0615 97.5684L55.0352 97.5918C52.166 100.136 47.8451 100.136 44.9697 97.5908L44.9443 97.5684L44.9229 97.5547C42.6253 95.5346 39.4263 94.8966 36.5303 95.8662H36.5215L36.4414 95.8936C32.9218 97.1127 29.0614 95.593 27.2939 92.3525L27.1289 92.0342C25.7725 89.241 23.016 87.3995 19.918 87.2129L19.9033 87.2119H19.8945C16.0746 86.9757 13.0281 83.9312 12.7891 80.1123V80.0977L12.7881 80.083C12.6014 76.985 10.7594 74.2283 7.96582 72.8721L7.64648 72.708C4.40713 70.9456 2.8871 67.0802 4.10645 63.5605C5.11591 60.6438 4.48551 57.406 2.44727 55.0869L2.43164 55.0635L2.40918 55.0381L2.17773 54.7646C-0.133377 51.9003 -0.0566963 47.759 2.40918 44.9736L2.43164 44.9473L2.44922 44.9219C4.46598 42.6253 5.10282 39.4297 4.13477 36.5361V36.5244L4.10645 36.4453C2.84788 32.8125 4.50735 28.8153 7.96582 27.1328C10.7593 25.7765 12.6014 23.0208 12.7881 19.9229L12.7891 19.9082V19.8936C13.0281 16.0747 16.0746 13.0302 19.8945 12.7939H19.9033L19.918 12.793C23.016 12.6063 25.7725 10.7649 27.1289 7.97168C28.8112 4.50842 32.8076 2.85361 36.4414 4.10645C39.3592 5.11615 42.5976 4.48395 44.917 2.44434L44.9385 2.43164L44.9648 2.4082Z" fill="#0F0200" stroke="white"/>
</svg>
