<svg width="100" height="100" viewBox="0 0 100 100" fill="none" xmlns="http://www.w3.org/2000/svg">
<path d="M46.0082 3.7938C48.2449 1.66805 51.7551 1.66805 53.9918 3.7938C55.733 5.44864 58.3147 5.85755 60.4821 4.82176C63.2662 3.49123 66.6046 4.57594 68.0749 7.28882C69.2195 9.40073 71.5485 10.5874 73.9299 10.2721C76.9889 9.86701 79.8287 11.9303 80.3888 14.9647C80.8247 17.327 82.673 19.1753 85.0353 19.6112C88.0697 20.1713 90.133 23.0111 89.7279 26.0701C89.4126 28.4515 90.5993 30.7805 92.7112 31.9251C95.4241 33.3954 96.5088 36.7338 95.1782 39.5179C94.1424 41.6853 94.5514 44.267 96.2062 46.0082C98.3319 48.2449 98.3319 51.7551 96.2062 53.9918C94.5514 55.733 94.1424 58.3147 95.1782 60.4821C96.5088 63.2662 95.4241 66.6046 92.7112 68.0749C90.5993 69.2195 89.4126 71.5485 89.7279 73.9299C90.133 76.9889 88.0697 79.8287 85.0353 80.3888C82.673 80.8247 80.8247 82.673 80.3888 85.0353C79.8287 88.0697 76.9889 90.133 73.9299 89.7279C71.5485 89.4126 69.2195 90.5993 68.0749 92.7112C66.6046 95.4241 63.2662 96.5088 60.4821 95.1782C58.3147 94.1424 55.733 94.5514 53.9918 96.2062C51.7551 98.3319 48.2449 98.3319 46.0082 96.2062C44.267 94.5514 41.6853 94.1424 39.5179 95.1782C36.7338 96.5088 33.3954 95.4241 31.9251 92.7112C30.7805 90.5993 28.4515 89.4126 26.0701 89.7279C23.0111 90.133 20.1713 88.0697 19.6112 85.0353C19.1753 82.673 17.327 80.8247 14.9647 80.3888C11.9303 79.8287 9.86701 76.9889 10.2721 73.9299C10.5874 71.5485 9.40073 69.2195 7.28882 68.0749C4.57594 66.6046 3.49123 63.2662 4.82176 60.4821C5.85755 58.3147 5.44864 55.733 3.7938 53.9918C1.66805 51.7551 1.66805 48.2449 3.7938 46.0082C5.44864 44.267 5.85755 41.6853 4.82176 39.5179C3.49123 36.7338 4.57594 33.3954 7.28882 31.9251C9.40073 30.7805 10.5874 28.4515 10.2721 26.0701C9.86701 23.0111 11.9303 20.1713 14.9647 19.6112C17.327 19.1753 19.1753 17.327 19.6112 14.9647C20.1713 11.9303 23.0111 9.86701 26.0701 10.2721C28.4515 10.5874 30.7805 9.40073 31.9251 7.28882C33.3954 4.57594 36.7338 3.49123 39.5179 4.82176C41.6853 5.85755 44.267 5.44864 46.0082 3.7938Z" fill="#683292"/>
</svg>
