<svg width="110" height="110" viewBox="0 0 110 110" fill="none" xmlns="http://www.w3.org/2000/svg">
<path d="M55 0L62.5714 7.19588L71.9959 2.69189L76.9731 11.8753L87.3282 10.5041L89.224 20.776L99.4959 22.6718L98.1247 33.0269L107.308 38.0041L102.804 47.4286L110 55L102.804 62.5714L107.308 71.9959L98.1247 76.9731L99.4959 87.3282L89.224 89.224L87.3282 99.4959L76.9731 98.1247L71.9959 107.308L62.5714 102.804L55 110L47.4286 102.804L38.0041 107.308L33.0269 98.1247L22.6718 99.4959L20.776 89.224L10.5041 87.3282L11.8753 76.9731L2.69189 71.9959L7.19588 62.5714L0 55L7.19588 47.4286L2.69189 38.0041L11.8753 33.0269L10.5041 22.6718L20.776 20.776L22.6718 10.5041L33.0269 11.8753L38.0041 2.69189L47.4286 7.19588L55 0Z" fill="#0F0200"/>
</svg>
