<svg width="50" height="50" viewBox="0 0 50 50" fill="none" xmlns="http://www.w3.org/2000/svg">
<path d="M47.6321 35.9451C47.3107 35.838 46.9537 35.9183 46.7126 36.1594L44.2574 38.6143L42.0612 36.4182C40.5261 38.699 38.6855 40.5442 36.4188 42.0692C36.4188 42.0692 38.6151 44.2563 38.6151 44.2563L36.1599 46.7113C35.6424 47.1998 35.9519 48.1579 36.6688 48.2289C36.6688 48.2289 48.9803 49.9876 48.9803 49.9876C49.5475 50.088 50.0843 49.5463 49.9891 48.9788C49.9891 48.9788 48.2303 36.6682 48.2303 36.6682C48.1857 36.329 47.9536 36.0522 47.6321 35.9451Z" fill="white"/>
<path d="M11.3847 44.2563L13.5899 42.0512C11.4028 40.6169 9.39271 38.5942 7.94756 36.4092L5.74235 38.6143L3.2872 36.1593C2.79862 35.6418 1.8405 35.9512 1.76947 36.6682C1.76946 36.6681 0.0106992 48.9787 0.0106992 48.9787C-0.0826936 49.5444 0.450458 50.0898 1.01957 49.9875C1.01955 49.9875 13.331 48.2288 13.331 48.2288C14.0457 48.1564 14.3597 47.2012 13.8399 46.7112C13.8399 46.7113 11.3847 44.2563 11.3847 44.2563Z" fill="white"/>
<path d="M38.6155 5.74427L36.4104 7.94927C38.5975 9.38368 40.6076 11.4062 42.0527 13.5913L44.2579 11.3863L46.7131 13.8413C47.2016 14.3588 48.1598 14.0493 48.2308 13.3324C48.2308 13.3324 49.9896 1.0218 49.9896 1.0218C50.0832 0.458334 49.5486 -0.092291 48.9807 0.0130393C48.9807 0.0130214 36.6693 1.77166 36.6693 1.77166C35.9545 1.84424 35.6407 2.7993 36.1604 3.28931C36.1604 3.2893 38.6155 5.74427 38.6155 5.74427Z" fill="white"/>
<path d="M2.36798 14.0555C2.68937 14.1627 3.04645 14.0823 3.28751 13.8413L5.74266 11.3863L7.93893 13.5913C9.43873 11.3249 11.3852 9.4189 13.5902 7.94041C13.5902 7.94044 11.3851 5.74432 11.3851 5.74432L13.8402 3.28934C14.3578 2.80093 14.0482 1.84262 13.3313 1.77172C13.3313 1.7717 1.01986 0.0130652 1.01986 0.0130652C0.453675 -0.0904973 -0.0842806 0.456735 0.0110319 1.02186C0.011014 1.02184 1.76976 13.3325 1.76976 13.3325C1.81444 13.6717 2.04653 13.9484 2.36798 14.0555Z" fill="white"/>
<path d="M28.572 23.7505C28.4273 19.0302 21.5737 19.0313 21.4297 23.7505C21.5743 28.4707 28.428 28.4696 28.572 23.7505Z" fill="white"/>
<path d="M24.9993 29.1068C21.4639 29.1068 18.3213 31.4815 17.3125 34.8202C20.7065 37.5144 25.5161 38.2503 29.5525 36.6413C30.6864 36.195 31.7309 35.579 32.6862 34.8292C31.6863 31.4815 28.5437 29.1068 24.9993 29.1068Z" fill="white"/>
<path d="M31.4278 14.2876C19.016 6.97455 6.17916 22.9827 15.8757 33.517C16.9201 30.9101 19.0539 28.8836 21.6518 27.9194C20.4287 26.9375 19.6431 25.4377 19.6431 23.7504C19.8925 16.6614 30.1078 16.6622 30.3565 23.7505C30.3565 25.4377 29.5708 26.9375 28.3477 27.9194C30.9546 28.8836 33.0884 30.919 34.124 33.5258C39.5621 27.9446 38.1649 18.1792 31.4278 14.2876Z" fill="white"/>
<path d="M39.7218 36.6056C49.3746 24.3647 40.5856 6.27685 24.9996 6.25314C10.2424 6.20814 1.2141 22.8071 9.23343 35.1148C15.9759 45.8738 31.9349 46.7057 39.7218 36.6056ZM34.2848 35.8468C27.4733 41.8757 16.2864 39.5972 12.2776 31.4812C5.8399 18.7593 20.0942 5.45956 32.3475 12.7522C40.6307 17.5838 41.6752 29.7127 34.2848 35.8468Z" fill="white"/>
</svg>
