<svg width="17" height="20" viewBox="0 0 17 20" fill="none" xmlns="http://www.w3.org/2000/svg">
<path d="M1.62791 6.04648C1.49947 6.04648 1.39535 6.1506 1.39535 6.27904V18.3721C1.39535 18.5006 1.49947 18.6047 1.62791 18.6047H14.6512C14.7796 18.6047 14.8837 18.5006 14.8837 18.3721V6.27904C14.8837 6.1506 14.7796 6.04648 14.6512 6.04648H1.62791ZM0 6.27904C0 5.37996 0.728837 4.65112 1.62791 4.65112H14.6512C15.5502 4.65112 16.2791 5.37996 16.2791 6.27904V18.3721C16.2791 19.2712 15.5502 20 14.6512 20H1.62791C0.728837 20 0 19.2712 0 18.3721V6.27904Z" fill="#F83D8E"/>
<path d="M8.14099 1.39535C6.72815 1.39535 5.58285 2.54068 5.58285 3.9535V7.20932C5.58285 7.59464 5.27049 7.907 4.88517 7.907C4.49986 7.907 4.1875 7.59464 4.1875 7.20932V3.9535C4.1875 1.77004 5.95754 0 8.14099 0C10.3244 0 12.0945 1.77004 12.0945 3.9535V7.20932C12.0945 7.59464 11.7821 7.907 11.3968 7.907C11.0115 7.907 10.6991 7.59464 10.6991 7.20932V3.9535C10.6991 2.54068 9.55383 1.39535 8.14099 1.39535Z" fill="#F83D8E"/>
</svg>
