<svg width="18" height="22" viewBox="0 0 18 22" fill="none" xmlns="http://www.w3.org/2000/svg">
<path d="M1.7907 6.65109C1.64942 6.65109 1.53488 6.76563 1.53488 6.90691V20.2092C1.53488 20.3505 1.64942 20.465 1.7907 20.465H16.1163C16.2576 20.465 16.3721 20.3505 16.3721 20.2092V6.90691C16.3721 6.76563 16.2576 6.65109 16.1163 6.65109H1.7907ZM0 6.90691C0 5.91793 0.801721 5.11621 1.7907 5.11621H16.1163C17.1053 5.11621 17.907 5.91793 17.907 6.90691V20.2092C17.907 21.1982 17.1053 21.9999 16.1163 21.9999H1.7907C0.801721 21.9999 0 21.1982 0 20.2092V6.90691Z" fill="#0F0200"/>
<path d="M8.95431 1.53488C7.40019 1.53488 6.14035 2.79474 6.14035 4.34884V7.93023C6.14035 8.35408 5.79675 8.69767 5.37291 8.69767C4.94907 8.69767 4.60547 8.35408 4.60547 7.93023V4.34884C4.60547 1.94704 6.55251 0 8.95431 0C11.3561 0 13.3031 1.94704 13.3031 4.34884V7.93023C13.3031 8.35408 12.9595 8.69767 12.5357 8.69767C12.1119 8.69767 11.7683 8.35408 11.7683 7.93023V4.34884C11.7683 2.79474 10.5084 1.53488 8.95431 1.53488Z" fill="#0F0200"/>
</svg>
