<svg width="65" height="65" viewBox="0 0 65 65" fill="none" xmlns="http://www.w3.org/2000/svg">
<path d="M55.4809 9.51906C49.3425 3.38051 41.1811 0 32.5 0C23.8189 0 15.6575 3.38051 9.51906 9.51906C3.38051 15.6576 0 23.8189 0 32.5C0 41.1811 3.38051 49.3425 9.51906 55.4809C15.6575 61.6195 23.8189 65 32.5 65C41.1811 65 49.3425 61.6195 55.4809 55.4809C61.6195 49.3425 65 41.1811 65 32.5C65 23.8189 61.6195 15.6576 55.4809 9.51906ZM27.9172 4.19135C27.523 5.82183 27.5029 6.8473 26.0223 8.60167C24.7732 10.0828 23.8511 10.4551 22.6836 10.9266C21.3609 11.4609 19.7146 12.1258 17.854 14.3319C15.9936 16.5377 15.6153 18.272 15.3113 19.6657C15.043 20.896 14.8311 21.8678 13.5821 23.3486C12.3322 24.83 11.41 25.2024 10.2425 25.674C8.91978 26.2081 7.27376 26.873 5.41221 29.0792C4.6981 29.9259 4.20295 30.7028 3.84596 31.4179C4.35959 17.6511 14.6227 6.33584 27.9172 4.19135ZM32.5 61.1765C19.1717 61.1765 7.93841 52.0363 4.73786 39.695C6.02333 37.8954 6.34247 36.4326 6.60515 35.228C6.87356 33.9974 7.08564 33.0255 8.33466 31.5446C9.58457 30.0633 10.5068 29.6909 11.6743 29.2193C12.9969 28.685 14.643 28.0202 16.5045 25.8141C18.3649 23.6083 18.7431 21.8739 19.047 20.4802C19.3153 19.2499 19.5273 18.2783 20.7767 16.7969C22.0258 15.3158 22.9479 14.9434 24.1154 14.4718C25.4381 13.9375 27.0844 13.2727 28.9445 11.0672C31.6559 7.85468 31.1857 5.74422 32.0516 3.82914C48.0948 3.58188 61.1765 16.5623 61.1765 32.5C61.1765 48.3122 48.3122 61.1765 32.5 61.1765Z" fill="#683292"/>
<path d="M32.5018 21.0293C26.177 21.0293 21.0312 26.175 21.0312 32.4999C21.0312 38.8248 26.177 43.9705 32.5018 43.9705C38.8267 43.9705 43.9724 38.8248 43.9724 32.4999C43.9724 26.175 38.8267 21.0293 32.5018 21.0293ZM32.5018 40.1469C28.2853 40.1469 24.8548 36.7165 24.8548 32.4999C24.8548 28.2833 28.2853 24.8528 32.5018 24.8528C36.7184 24.8528 40.1489 28.2833 40.1489 32.4999C40.1489 36.7165 36.7184 40.1469 32.5018 40.1469Z" fill="#683292"/>
<path d="M11.75 41.2014L14.9312 39.0794L18.7568 44.8143L15.5756 46.9363L11.75 41.2014Z" fill="#683292"/>
<path d="M47.8438 46.5051L49.1948 39.7432L52.9456 40.4926L51.5946 47.2545L47.8438 46.5051Z" fill="#683292"/>
<path d="M44.2383 20.1633L47.4195 18.0413L51.245 23.7762L48.0639 25.8983L44.2383 20.1633Z" fill="#683292"/>
<path d="M35.2109 13.6912L40.9459 9.86558L43.068 13.0469L37.3331 16.8724L35.2109 13.6912Z" fill="#683292"/>
<path d="M34.3203 52.8804L40.0552 49.0548L42.1773 52.236L36.4424 56.0615L34.3203 52.8804Z" fill="#683292"/>
<path d="M22.8867 47.7942H26.7102V51.6177H22.8867V47.7942Z" fill="#683292"/>
<path d="M51.6172 30.5881H55.4407V34.4117H51.6172V30.5881Z" fill="#683292"/>
</svg>
