<svg width="35" height="35" viewBox="0 0 35 35" fill="none" xmlns="http://www.w3.org/2000/svg">
<path d="M35 14.5833V20.4167C35 22.0254 33.6921 23.3333 32.0833 23.3333H31.2892C30.1738 29.9437 24.4237 35 17.5 35C16.8551 35 16.3333 34.4782 16.3333 33.8333C16.3333 33.1885 16.8551 32.6667 17.5 32.6667C23.9326 32.6667 29.1667 27.4326 29.1667 21V14C29.1667 7.56738 23.9326 2.33333 17.5 2.33333C11.0674 2.33333 5.83333 7.56738 5.83333 14V22.1667C5.83333 22.8115 5.31152 23.3333 4.66667 23.3333H2.91667C1.30794 23.3333 0 22.0254 0 20.4167V14.5833C0 12.9746 1.30794 11.6667 2.91667 11.6667H3.71077C4.82617 5.05631 10.5763 0 17.5 0C24.4237 0 30.1738 5.05631 31.2892 11.6667H32.0833C33.6921 11.6667 35 12.9746 35 14.5833ZM17.5 4.66667C12.3537 4.66667 8.16667 8.85368 8.16667 14V19.8333C8.16667 24.9797 12.3537 29.1667 17.5 29.1667C22.6463 29.1667 26.8333 24.9797 26.8333 19.8333V14C26.8333 8.85368 22.6463 4.66667 17.5 4.66667Z" fill="#F83D8E"/>
</svg>
