<svg width="20" height="16" viewBox="0 0 20 16" fill="none" xmlns="http://www.w3.org/2000/svg">
<path d="M3 13C3 13.5304 3.21071 14.0391 3.58579 14.4142C3.96086 14.7893 4.46957 15 5 15C5.53043 15 6.03914 14.7893 6.41421 14.4142C6.78929 14.0391 7 13.5304 7 13C7 12.4696 6.78929 11.9609 6.41421 11.5858C6.03914 11.2107 5.53043 11 5 11C4.46957 11 3.96086 11.2107 3.58579 11.5858C3.21071 11.9609 3 12.4696 3 13Z" stroke="#F83D8E" stroke-width="2" stroke-linecap="round" stroke-linejoin="round"/>
<path d="M13 13C13 13.5304 13.2107 14.0391 13.5858 14.4142C13.9609 14.7893 14.4696 15 15 15C15.5304 15 16.0391 14.7893 16.4142 14.4142C16.7893 14.0391 17 13.5304 17 13C17 12.4696 16.7893 11.9609 16.4142 11.5858C16.0391 11.2107 15.5304 11 15 11C14.4696 11 13.9609 11.2107 13.5858 11.5858C13.2107 11.9609 13 12.4696 13 13Z" stroke="#F83D8E" stroke-width="2" stroke-linecap="round" stroke-linejoin="round"/>
<path d="M3 13H1V2C1 1.73478 1.10536 1.48043 1.29289 1.29289C1.48043 1.10536 1.73478 1 2 1H11V13M7 13H13M17 13H19V7M19 7H11M19 7L16 2H11" stroke="#F83D8E" stroke-width="2" stroke-linecap="round" stroke-linejoin="round"/>
</svg>
