<svg width="60" height="60" viewBox="0 0 60 60" fill="none" xmlns="http://www.w3.org/2000/svg">
<path d="M53.383 45.8977L41.2338 33.7475L49.4196 25.5796L46.9225 23.0826L51.9139 18.0912L49.7816 15.9588C50.3149 15.6445 48.3768 16.787 57.3562 11.494L57.4306 11.4391C58.9151 10.34 59.8448 8.65322 59.9815 6.81123C60.2676 2.95418 57.0613 -0.257687 53.2076 0.0161939C50.1232 0.23537 48.5508 2.59348 48.5235 2.61712L44.0595 10.2366L41.9315 8.10863L36.9401 13.0999L34.4458 10.6058L32.8671 12.181C29.3471 5.6937 23.2198 -0.237923 15.8294 0.00795866C11.9929 0.135017 8.27691 1.8903 5.08316 5.08406C-1.48893 11.6559 -2.00187 20.4593 5.39481 27.8574C7.31186 29.7743 9.61644 31.4737 12.1501 32.8524L10.5786 34.4204L13.0756 36.9175L8.08421 41.9087L10.2166 44.0412C9.68326 44.3555 11.6215 43.2131 2.64188 48.506L2.56752 48.5609C-0.547757 50.8675 -0.880579 55.4049 1.85682 58.1423C4.58599 60.8717 9.10126 60.5474 11.4145 57.4631L11.4748 57.3829L15.9388 49.7634L18.0668 51.8914L23.0581 46.9L25.5524 49.3943L33.7388 41.2259L45.9004 53.3875C46.1325 57.0813 49.182 59.9998 52.9401 59.9998C56.8413 59.9998 59.9989 56.8428 59.9989 52.941C59.9989 51.0558 57.075 46.1247 53.383 45.8977ZM51.4613 4.58453C51.956 3.96453 52.6616 3.59336 53.4577 3.53689C55.2141 3.41124 56.5853 4.88359 56.4618 6.55029C56.4032 7.34005 56.0158 8.06557 55.3952 8.55322L47.2041 13.3814L46.6388 12.816L51.4613 4.58453ZM41.9314 13.1001L46.9228 18.0914L44.427 20.5872L39.4356 15.5958L41.9314 13.1001ZM25.3606 7.89157C27.248 9.77886 28.9566 12.1979 30.248 14.7943L28.3012 16.7368C24.811 11.991 19.1793 5.94123 13.6763 3.88559C17.5909 2.87618 21.6827 4.21418 25.3606 7.89157ZM19.2508 25.7674C16.9774 24.1302 14.7959 22.2835 12.8822 20.3698C8.95809 16.4464 7.51127 13.5696 6.98833 11.8472C6.68539 10.8489 6.60269 9.97592 6.73516 9.23169L21.2629 23.7596L19.2508 25.7674ZM23.7613 21.2668L9.23079 6.73617C9.97502 6.60381 10.848 6.6864 11.8461 6.98934C13.5687 7.51216 16.4455 8.9591 20.3689 12.8833C22.2853 14.7998 24.1341 16.984 25.7724 19.26L23.7613 21.2668ZM7.89056 25.3619C4.21328 21.6839 2.87517 17.5921 3.88446 13.6774C5.94481 19.1928 12.0084 24.823 16.721 28.2915L14.7691 30.2391C12.1623 28.9441 9.80161 27.2729 7.89056 25.3619ZM8.5368 55.4156C8.04209 56.0357 7.33657 56.4068 6.54045 56.4634C5.71445 56.5222 4.93775 56.232 4.35234 55.6468C3.15988 54.4542 3.27905 52.4875 4.60293 51.4469L12.7941 46.6188L13.3595 47.1841L8.5368 55.4156ZM18.0668 46.9001L13.0754 41.9087L15.5711 39.4131L20.5625 44.4045L18.0668 46.9001ZM15.5725 34.4232L34.443 15.5944L39.4341 20.5854L23.0598 36.9159L25.5523 39.4149L41.9296 23.081L44.4256 25.5769L25.5552 44.4058L15.5725 34.4232ZM38.7354 36.2405L49.3533 46.8593C48.3362 47.4615 47.4691 48.3205 46.8592 49.3552L36.2373 38.7332L38.7354 36.2405ZM55.4358 55.4369C54.0565 56.8162 51.8242 56.8163 50.4444 55.4369C49.0684 54.0607 49.0684 51.8218 50.4444 50.4456C51.8238 49.0663 54.0561 49.066 55.4358 50.4455V50.4456C56.8153 51.825 56.8153 54.0574 55.4358 55.4369Z" fill="#683292"/>
</svg>
