<svg width="37" height="26" viewBox="0 0 37 26" fill="none" xmlns="http://www.w3.org/2000/svg">
<path d="M12.3333 22.5789C12.3333 23.2556 12.1324 23.917 11.7559 24.4796C11.3795 25.0422 10.8444 25.4807 10.2184 25.7396C9.59244 25.9985 8.9036 26.0663 8.23903 25.9343C7.57447 25.8023 6.96403 25.4764 6.48491 24.998C6.00578 24.5196 5.67949 23.91 5.5473 23.2464C5.41511 22.5827 5.48296 21.8949 5.74226 21.2698C6.00156 20.6446 6.44067 20.1104 7.00406 19.7344C7.56745 19.3585 8.22982 19.1579 8.9074 19.1579C9.3573 19.1579 9.80279 19.2464 10.2184 19.4183C10.6341 19.5902 11.0118 19.8422 11.3299 20.1599C11.648 20.4776 11.9004 20.8547 12.0725 21.2698C12.2447 21.6848 12.3333 22.1297 12.3333 22.5789ZM30.8333 19.1579C30.1557 19.1579 29.4934 19.3585 28.93 19.7344C28.3666 20.1104 27.9275 20.6446 27.6682 21.2698C27.4089 21.8949 27.341 22.5827 27.4732 23.2464C27.6054 23.91 27.9317 24.5196 28.4108 24.998C28.8899 25.4764 29.5004 25.8023 30.1649 25.9343C30.8295 26.0663 31.5183 25.9985 32.1443 25.7396C32.7704 25.4807 33.3054 25.0422 33.6819 24.4796C34.0583 23.917 34.2592 23.2556 34.2592 22.5789C34.2592 21.6716 33.8983 20.8015 33.2558 20.1599C32.6133 19.5183 31.7419 19.1579 30.8333 19.1579ZM24.6666 3.42105V22.5789C24.6666 22.7604 24.5945 22.9344 24.466 23.0628C24.3375 23.1911 24.1632 23.2632 23.9815 23.2632H13.6489C13.6698 23.0356 13.6698 22.8065 13.6489 22.5789C13.6489 21.3087 13.1436 20.0905 12.2441 19.1923C11.3446 18.2941 10.1246 17.7895 8.85258 17.7895C7.58053 17.7895 6.36057 18.2941 5.46109 19.1923C4.56161 20.0905 4.05629 21.3087 4.05629 22.5789C4.03541 22.8065 4.03541 23.0356 4.05629 23.2632H3.42592C2.51731 23.2632 1.64591 22.9027 1.00343 22.2612C0.360944 21.6196 0 20.7494 0 19.8421V3.42105C0 2.51373 0.360944 1.64357 1.00343 1.002C1.64591 0.360431 2.51731 0 3.42592 0H21.2407C21.6906 0 22.1361 0.0884878 22.5518 0.260412C22.9674 0.432336 23.3451 0.684329 23.6632 1.002C23.9813 1.31968 24.2337 1.69681 24.4059 2.11187C24.578 2.52693 24.6666 2.97179 24.6666 3.42105ZM20.5555 11.6316C20.5555 11.4501 20.4833 11.2761 20.3549 11.1478C20.2264 11.0195 20.0521 10.9474 19.8704 10.9474H6.16666C5.98494 10.9474 5.81066 11.0195 5.68216 11.1478C5.55367 11.2761 5.48148 11.4501 5.48148 11.6316C5.48148 11.813 5.55367 11.9871 5.68216 12.1154C5.81066 12.2437 5.98494 12.3158 6.16666 12.3158H19.8704C20.0521 12.3158 20.2264 12.2437 20.3549 12.1154C20.4833 11.9871 20.5555 11.813 20.5555 11.6316ZM20.5555 6.15789C20.5555 5.97643 20.4833 5.8024 20.3549 5.67408C20.2264 5.54577 20.0521 5.47368 19.8704 5.47368H11.6481C11.4664 5.47368 11.2921 5.54577 11.1636 5.67408C11.0351 5.8024 10.963 5.97643 10.963 6.15789C10.963 6.33936 11.0351 6.51339 11.1636 6.6417C11.2921 6.77002 11.4664 6.8421 11.6481 6.8421H19.8704C20.0521 6.8421 20.2264 6.77002 20.3549 6.6417C20.4833 6.51339 20.5555 6.33936 20.5555 6.15789ZM35.1089 11.6316L34.1633 11.1663L33.3822 8.06C33.1984 7.32081 32.7719 6.66442 32.1708 6.19562C31.5697 5.72683 30.8286 5.47265 30.0659 5.47368H26.037V20.5263H26.5166C26.9793 19.5408 27.7651 18.7427 28.744 18.2641C29.7229 17.7855 30.8362 17.6551 31.8994 17.8946C32.9627 18.1341 33.9121 18.729 34.5905 19.5809C35.2688 20.4328 35.6354 21.4906 35.6296 22.5789C36.0559 22.261 36.4018 21.848 36.6397 21.3728C36.8777 20.8976 37.001 20.3734 37 19.8421V14.6968C37.0028 14.0605 36.8272 13.4362 36.4929 12.8944C36.1587 12.3527 35.6792 11.9152 35.1089 11.6316Z" fill="#F83D8E"/>
</svg>
