<svg width="24" height="20" viewBox="0 0 24 20" fill="none" xmlns="http://www.w3.org/2000/svg">
<path d="M12 19.7761C11.6868 19.7761 11.3848 19.6626 11.1495 19.4565C10.2608 18.6794 9.4039 17.9491 8.64792 17.3049L8.64406 17.3015C6.42765 15.4127 4.5137 13.7816 3.182 12.1748C1.69337 10.3785 1 8.67535 1 6.81477C1 5.00706 1.61986 3.33934 2.74527 2.11859C3.8841 0.883408 5.44675 0.203125 7.14586 0.203125C8.41579 0.203125 9.5788 0.604614 10.6025 1.39635C11.1191 1.79599 11.5874 2.2851 12 2.85561C12.4127 2.2851 12.8808 1.79599 13.3976 1.39635C14.4213 0.604614 15.5843 0.203125 16.8543 0.203125C18.5532 0.203125 20.116 0.883408 21.2549 2.11859C22.3803 3.33934 23 5.00706 23 6.81477C23 8.67535 22.3068 10.3785 20.8181 12.1746C19.4864 13.7816 17.5726 15.4126 15.3566 17.3012C14.5992 17.9464 13.741 18.6778 12.8503 19.4568C12.6151 19.6626 12.313 19.7761 12 19.7761ZM7.14586 1.49185C5.81098 1.49185 4.58469 2.0246 3.69259 2.99207C2.78723 3.97414 2.28856 5.33168 2.28856 6.81477C2.28856 8.37961 2.87014 9.77911 4.17414 11.3525C5.4345 12.8734 7.30918 14.4709 9.47977 16.3208L9.48379 16.3241C10.2426 16.9708 11.1028 17.704 11.9981 18.4868C12.8988 17.7025 13.7604 16.9682 14.5207 16.3204C16.6911 14.4706 18.5656 12.8734 19.826 11.3525C21.1298 9.77911 21.7114 8.37961 21.7114 6.81477C21.7114 5.33168 21.2127 3.97414 20.3074 2.99207C19.4154 2.0246 18.189 1.49185 16.8543 1.49185C15.8764 1.49185 14.9786 1.8027 14.1858 2.41568C13.4794 2.96219 12.9873 3.65305 12.6987 4.13644C12.5503 4.38503 12.2892 4.5334 12 4.5334C11.7108 4.5334 11.4496 4.38503 11.3012 4.13644C11.0129 3.65305 10.5207 2.96219 9.81412 2.41568C9.02138 1.8027 8.12357 1.49185 7.14586 1.49185Z" fill="#0F0200" stroke="#0F0200" stroke-width="0.4"/>
</svg>
