<svg width="60" height="60" viewBox="0 0 60 60" fill="none" xmlns="http://www.w3.org/2000/svg">
<g clip-path="url(#clip0_19731_785)">
<path d="M30.0007 8.82349C18.324 8.82349 8.82422 18.3233 8.82422 30C8.82422 41.6767 18.324 51.1764 30.0007 51.1764C41.6774 51.1764 51.1772 41.6767 51.1772 30C51.1772 18.3233 41.6774 8.82349 30.0007 8.82349ZM43.9733 19.2342L41.4067 21.8008L38.2 18.5941L40.7666 16.0275C41.9674 16.9549 43.0457 18.0333 43.9733 19.2342ZM27.1919 47.4226C25.4712 47.1462 23.8327 46.6208 22.3152 45.8835L24.2972 43.9015L27.5052 47.1094L27.1919 47.4226ZM32.4963 47.1094L35.7043 43.9015L37.6863 45.8835C36.1688 46.6208 34.5303 47.1462 32.8096 47.4226L32.4963 47.1094ZM30.0007 44.6137L26.7927 41.4058L30.0007 38.198L33.2087 41.4058L30.0007 44.6137ZM12.5781 27.1911C12.8546 25.4704 13.3799 23.832 14.1172 22.3144L16.0992 24.2964L12.8913 27.5043L12.5781 27.1911ZM12.8913 32.4956L16.0992 35.7035L14.1172 37.6855C13.3799 36.168 12.8546 34.5295 12.5781 32.8088L12.8913 32.4956ZM15.3869 30L18.5948 26.7921L21.8027 30L18.5947 33.2078L15.3869 30ZM32.8095 12.5774C34.5302 12.8537 36.1687 13.3791 37.6862 14.1164L35.7042 16.0984L32.4962 12.8904L32.8095 12.5774ZM27.505 12.8905L24.297 16.0985L22.315 14.1165C23.8326 13.3793 25.471 12.8538 27.1917 12.5775L27.505 12.8905ZM30.0007 15.3862L33.2087 18.5941L30.0007 21.802L26.7927 18.594L30.0007 15.3862ZM32.4963 24.2976L35.7043 21.0896L38.911 24.2963L35.703 27.5042L32.4963 24.2976ZM33.2074 30L30.0007 33.2067L26.794 30L30.0007 26.7933L33.2074 30ZM27.505 24.2976L24.2983 27.5043L21.0903 24.2964L24.297 21.0897L27.505 24.2976ZM24.2983 32.4956L27.505 35.7023L24.297 38.9102L21.0903 35.7035L24.2983 32.4956ZM32.4963 35.7023L35.703 32.4956L38.911 35.7035L35.7043 38.9102L32.4963 35.7023ZM38.1987 30L41.4067 26.7921L44.6145 30L41.4066 33.2078L38.1987 30ZM47.1101 32.4956L47.4233 32.8088C47.1468 34.5295 46.6215 36.168 45.8842 37.6855L43.9022 35.7035L47.1101 32.4956ZM47.1101 27.5043L43.9022 24.2964L45.8842 22.3144C46.6215 23.832 47.1468 25.4704 47.4233 27.1911L47.1101 27.5043ZM19.2348 16.0275L21.8014 18.5941L18.5947 21.8008L16.0281 19.2342C16.9556 18.0333 18.034 16.9549 19.2348 16.0275ZM16.0281 40.7657L18.5947 38.1991L21.8014 41.4058L19.2348 43.9724C18.034 43.045 16.9556 41.9667 16.0281 40.7657ZM40.7666 43.9724L38.2 41.4058L41.4067 38.1991L43.9733 40.7657C43.0457 41.9667 41.9674 43.045 40.7666 43.9724Z" fill="#683292"/>
<path d="M56.8025 22.8185C56.2844 20.8805 57.4915 17.6025 55.9835 14.996C54.4605 12.3636 50.9995 11.7675 49.616 10.384C48.2287 8.99682 47.6371 5.53976 45.0041 4.01635C42.3993 2.50929 39.1147 3.71412 37.1815 3.19753C35.3365 2.70447 33.0911 0 30 0C26.9154 0 24.6515 2.70765 22.8185 3.19753C20.8866 3.71388 17.5996 2.50988 14.996 4.01635C12.3628 5.53988 11.7686 8.99929 10.3841 10.384C8.99671 11.7713 5.53988 12.3627 4.01647 14.9959C2.50918 17.6011 3.71447 20.8852 3.19753 22.8185C2.704 24.664 0 26.9089 0 30C0 33.0846 2.70741 35.3482 3.19753 37.1815C3.71565 39.1195 2.50847 42.3975 4.01647 45.004C5.53953 47.6364 9.00047 48.2325 10.384 49.616C11.7713 51.0033 12.3629 54.4602 14.9959 55.9836C17.6009 57.4908 20.8854 56.2858 22.8185 56.8025C24.6635 57.2955 26.9089 60 30 60C33.0846 60 35.3485 57.2924 37.1815 56.8025C39.1135 56.2861 42.4004 57.4902 45.004 55.9836C47.6372 54.4601 48.2314 51.0007 49.6159 49.616C51.0033 48.2287 54.4601 47.6373 55.9835 45.0041C57.4908 42.3989 56.2855 39.1148 56.8025 37.1815C57.296 35.336 60 33.0911 60 30C60 28.0766 57.2926 24.6518 56.8025 22.8185ZM55.0959 32.9538C54.4199 33.9805 53.7211 35.0421 53.3927 36.2701C53.052 37.5445 53.1245 38.8438 53.1944 40.1004C53.2642 41.356 53.3302 42.5421 52.9285 43.2366C52.5142 43.9526 51.4426 44.4911 50.3081 45.0612C49.1927 45.6216 48.0392 46.2013 47.1201 47.1204C46.2011 48.0394 45.6215 49.1928 45.0609 50.3084C44.4908 51.4429 43.9524 52.5145 43.2364 52.9287C42.5419 53.3306 41.3556 53.2644 40.1001 53.1945C38.8438 53.1244 37.5442 53.0521 36.27 53.3927C35.0418 53.7209 33.9802 54.4199 32.9535 55.0959C31.88 55.8028 30.8658 56.4706 30 56.4706C29.1342 56.4706 28.12 55.8028 27.0462 55.0959C25.0288 53.7676 23.908 53.1358 21.4859 53.1358C19.6462 53.1358 17.7381 53.4925 16.7633 52.9286C16.0474 52.5144 15.5091 51.4428 14.9389 50.3084C14.3782 49.1928 13.7987 48.0393 12.8795 47.1202C11.9605 46.2012 10.8071 45.6215 9.69153 45.0611C8.55706 44.4909 7.48553 43.9525 7.07129 43.2366C6.66953 42.5421 6.73553 41.3561 6.80541 40.1004C6.87541 38.8438 6.94776 37.5445 6.60706 36.2701C6.27882 35.042 5.58 33.9805 4.904 32.9539C4.19718 31.88 3.52941 30.8659 3.52941 30C3.52941 29.1342 4.19718 28.12 4.90412 27.0462C5.58012 26.0195 6.27906 24.958 6.60718 23.7299C6.94788 22.4555 6.87541 21.1562 6.80553 19.8996C6.73565 18.644 6.66965 17.4579 7.07141 16.7634C7.48565 16.0474 8.55729 15.5089 9.69176 14.9388C10.8072 14.3784 11.9607 13.7987 12.8798 12.8796C13.7988 11.9606 14.3784 10.8071 14.9389 9.69165C15.5091 8.55706 16.0475 7.48553 16.7635 7.07129C17.458 6.66941 18.6442 6.73565 19.8998 6.80553C21.1561 6.87565 22.4556 6.94788 23.7299 6.60729C24.958 6.27906 26.0196 5.58012 27.0462 4.90424C28.12 4.19718 29.1342 3.52941 30 3.52941C30.8658 3.52941 31.88 4.19718 32.9538 4.90424C33.9805 5.58012 35.042 6.27906 36.2702 6.60729C37.5445 6.948 38.8438 6.87553 40.1005 6.80565C41.3561 6.73576 42.5421 6.66965 43.2367 7.07141C43.9526 7.48565 44.4909 8.55718 45.0611 9.69165C45.6218 10.8072 46.2013 11.9607 47.1205 12.8798C48.0395 13.7988 49.1929 14.3785 50.3085 14.9391C51.4429 15.5092 52.5145 16.0476 52.9287 16.7635C53.3305 17.458 53.2645 18.644 53.1946 19.8998C53.1246 21.1564 53.0522 22.4556 53.3929 23.73C53.7212 24.9581 54.42 26.0196 55.0961 27.0464C55.8028 28.12 56.4706 29.1341 56.4706 30C56.4706 30.8658 55.8028 31.88 55.0959 32.9538Z" fill="#683292"/>
</g>
<defs>
<clipPath id="clip0_19731_785">
<rect width="60" height="60" fill="white"/>
</clipPath>
</defs>
</svg>
