<svg width="16" height="16" viewBox="0 0 16 16" fill="none" xmlns="http://www.w3.org/2000/svg">
<path d="M15.1268 0.00472444L15.2102 0L15.3126 0.00629913L15.3835 0.0188976L15.4803 0.0464567L15.5646 0.0826772L15.6433 0.127559L15.7142 0.180315L15.7787 0.23937L15.8197 0.285827L15.8843 0.377165L15.9252 0.452756C15.9622 0.531496 15.9858 0.61496 15.9961 0.701575L16 0.785039C16 0.844094 15.9937 0.902362 15.9811 0.958267L15.9535 1.05512L10.8102 15.289C10.7127 15.5012 10.5564 15.681 10.3597 15.8071C10.1631 15.9331 9.93437 16.0001 9.70079 16C9.49042 16.0007 9.28346 15.9468 9.10007 15.8438C8.91668 15.7407 8.76312 15.5919 8.65433 15.4118L8.60315 15.3118L5.96378 10.0346L0.711811 7.40787C0.517481 7.31899 0.349892 7.18065 0.225805 7.00668C0.101718 6.83271 0.0254834 6.62921 0.00472444 6.41653L0 6.29921C0 5.85827 0.237008 5.45512 0.662205 5.22047L0.772441 5.16535L14.9591 0.0425196L15.0425 0.0188976L15.1268 0.00472444Z" fill="#683292"/>
</svg>
