<svg width="14" height="16" viewBox="0 0 14 16" fill="none" xmlns="http://www.w3.org/2000/svg">
<path d="M11.9495 2.05891C13.2346 3.34932 13.9696 5.09106 13.9991 6.91585C14.0285 8.74063 13.3502 10.5054 12.1074 11.837L11.9495 12.001L8.64948 15.3142C8.23076 15.7345 7.66863 15.9791 7.07698 15.9987C6.48532 16.0183 5.90837 15.8113 5.46301 15.4197L5.35102 15.3142L2.05021 12.0002C0.737483 10.6819 0 8.89391 0 7.02956C0 5.1652 0.737483 3.37721 2.05021 2.05891C3.36294 0.740612 5.14338 0 6.99986 0C8.85634 0 10.6368 0.740612 11.9495 2.05891ZM6.99986 4.68638C6.69345 4.68638 6.39004 4.74699 6.10696 4.86475C5.82387 4.9825 5.56665 5.1551 5.34999 5.37268C5.13332 5.59027 4.96146 5.84858 4.8442 6.13286C4.72694 6.41715 4.66659 6.72185 4.66659 7.02956C4.66659 7.33727 4.72694 7.64196 4.8442 7.92625C4.96146 8.21054 5.13332 8.46884 5.34999 8.68643C5.56665 8.90401 5.82387 9.07661 6.10696 9.19436C6.39004 9.31212 6.69345 9.37273 6.99986 9.37273C7.61868 9.37273 8.21216 9.12586 8.64973 8.68643C9.08731 8.247 9.33313 7.651 9.33313 7.02956C9.33313 6.40811 9.08731 5.81211 8.64973 5.37268C8.21216 4.93325 7.61868 4.68638 6.99986 4.68638Z" fill="#683292"/>
</svg>
