<svg width="65" height="65" viewBox="0 0 65 65" fill="none" xmlns="http://www.w3.org/2000/svg">
<g clip-path="url(#clip0_19965_112)">
<path d="M57.8315 49.7226L44.67 36.5599L53.5379 27.7114L50.8327 25.0063L56.2401 19.5989L53.93 17.2889C54.5078 16.9483 52.4081 18.186 62.1359 12.452L62.2165 12.3925C63.8246 11.2018 64.8319 9.37445 64.98 7.37896C65.2899 3.2005 61.8164 -0.279029 57.6415 0.0176757C54.3002 0.255116 52.5966 2.80973 52.5671 2.83535L47.7311 11.0898L45.4258 8.78448L40.0184 14.1917L37.3162 11.4897L35.606 13.1962C31.7927 6.16831 25.1548 -0.257617 17.1485 0.00875412C12.9923 0.146401 8.96666 2.04796 5.50676 5.50786C-1.61301 12.6274 -2.16869 22.1644 5.84438 30.179C7.92118 32.2556 10.4178 34.0967 13.1626 35.5902L11.4601 37.2889L14.1652 39.994L8.75789 45.4013L11.0679 47.7114C10.4902 48.052 12.5899 46.8143 2.86203 52.5483L2.78149 52.6078C-0.593403 55.1066 -0.95396 60.0221 2.01156 62.9876C4.96815 65.9445 9.8597 65.5931 12.3658 62.2519L12.431 62.1649L17.267 53.9105L19.5723 56.2158L24.9797 50.8085L27.6817 53.5107L36.5504 44.6615L49.7254 57.8366C49.9769 61.8382 53.2805 65 57.3518 65C61.5781 65 64.9988 61.5798 64.9988 57.3529C64.9988 55.3105 61.8312 49.9686 57.8315 49.7226ZM55.7498 4.9667C56.2857 4.29504 57.05 3.89293 57.9125 3.83176C59.8153 3.69564 61.3007 5.29068 61.1669 7.09627C61.1035 7.95185 60.6838 8.73784 60.0115 9.26612L51.1377 14.4967L50.5253 13.8842L55.7498 4.9667ZM45.4256 14.192L50.833 19.5992L48.1293 22.3029L42.7219 16.8956L45.4256 14.192ZM27.474 8.54934C29.5187 10.5939 31.3696 13.2145 32.7687 16.0272L30.6596 18.1317C26.8785 12.9903 20.7776 6.43646 14.816 4.20952C19.0568 3.116 23.4896 4.56549 27.474 8.54934ZM20.855 27.9148C18.3921 26.1412 16.0289 24.1406 13.9557 22.0674C9.70459 17.817 8.13721 14.7005 7.57069 12.8346C7.24251 11.7531 7.15291 10.8074 7.29642 10.0011L23.0348 25.7397L20.855 27.9148ZM25.7414 23.0392L10 7.29765C10.8063 7.15426 11.752 7.24373 12.8332 7.57192C14.6994 8.13831 17.8159 9.70582 22.0663 13.9571C24.1424 16.0332 26.1453 18.3995 27.9201 20.8651L25.7414 23.0392ZM8.54811 27.4755C4.56439 23.491 3.11477 19.0583 4.20817 14.8174C6.44021 20.7924 13.0091 26.8918 18.1144 30.6492L15.9999 32.7592C13.1758 31.3562 10.6184 29.5458 8.54811 27.4755ZM9.24819 60.0337C8.71227 60.7055 7.94795 61.1075 7.08549 61.1688C6.19066 61.2325 5.34923 60.9181 4.71504 60.2842C3.4232 58.9922 3.55231 56.8616 4.98651 55.7343L13.8602 50.5039L14.4728 51.1163L9.24819 60.0337ZM19.5723 50.8086L14.165 45.4013L16.8687 42.6976L22.2761 48.105L19.5723 50.8086ZM16.8702 37.292L37.3133 16.894L42.7203 22.301L24.9814 39.9924L27.6816 42.6996L45.4237 25.0046L48.1277 27.7085L27.6848 48.1064L16.8702 37.292ZM41.9633 39.2607L53.4661 50.7644C52.3642 51.4168 51.4249 52.3473 50.7642 53.4682L39.257 41.9611L41.9633 39.2607ZM60.0554 60.0568C58.5612 61.551 56.1428 61.5511 54.6481 60.0568C53.1574 58.5659 53.1574 56.1404 54.6481 54.6496C56.1424 53.1553 58.5608 53.155 60.0554 54.6494V54.6496C61.5499 56.1439 61.5499 58.5623 60.0554 60.0568Z" fill="#683292"/>
</g>
<defs>
<clipPath id="clip0_19965_112">
<rect width="65" height="65" fill="white"/>
</clipPath>
</defs>
</svg>
