<svg width="35" height="34" viewBox="0 0 35 34" fill="none" xmlns="http://www.w3.org/2000/svg">
<path fill-rule="evenodd" clip-rule="evenodd" d="M15.496 0.191085L20.0629 2.84514L5.25637 11.4499V17.8261C5.25637 18.0808 5.38184 18.2996 5.60108 18.427L9.03321 20.4216C9.1428 20.4853 9.26826 20.4853 9.37792 20.4216C9.48751 20.3579 9.55024 20.2485 9.55024 20.1211V13.9453L24.3568 5.34052L28.9238 7.99457C29.3622 8.24935 29.6132 8.68689 29.6132 9.19644V17.1722C28.3733 16.7513 27.0614 16.5242 25.751 16.4437V15.909C25.751 15.3264 25.4206 14.804 24.8962 14.5575C24.372 14.3111 23.7618 14.3914 23.3181 14.7652L18.0611 19.194C17.625 19.5614 17.3867 20.0971 17.4049 20.6691C17.4231 21.2436 17.693 21.7591 18.1534 22.0991L23.3927 25.9683C23.8451 26.3024 24.4384 26.3515 24.9389 26.0962C25.44 25.8406 25.7511 25.3311 25.7511 24.7657V24.1753C26.8415 24.3062 27.9209 24.6437 28.8073 25.2896C28.9793 25.4149 29.1423 25.5513 29.294 25.698C29.1925 25.8177 29.0684 25.9215 28.9239 26.0054L15.496 33.8089C15.0575 34.0637 14.5556 34.0637 14.1172 33.8089L0.689418 26.0054C0.250928 25.7507 0 25.3131 0 24.8035V9.19652C0 8.68689 0.250928 8.24935 0.689418 7.99464L14.1173 0.191085C14.5557 -0.0636949 15.0575 -0.0636949 15.496 0.191085ZM24.622 22.973C31.9953 22.973 34.0848 30.0617 28.0285 33.2478C27.9952 33.2651 27.9811 33.3051 27.9963 33.3395C28.0106 33.3715 28.0443 33.3885 28.0781 33.38C38.1403 30.8887 37.4369 17.546 24.622 17.546V15.909C24.622 15.7678 24.5455 15.647 24.4185 15.5872C24.2914 15.5275 24.1503 15.546 24.0427 15.6367L18.7857 20.0656C18.6138 20.2104 18.5262 20.4075 18.5333 20.633C18.5405 20.8585 18.6405 21.0495 18.8212 21.1829L24.0605 25.0521C24.1704 25.1333 24.307 25.1446 24.4286 25.0826C24.5502 25.0205 24.622 24.9029 24.622 24.7658V22.973Z" fill="#F83D8E"/>
</svg>
