<svg width="24" height="24" viewBox="0 0 24 24" fill="none" xmlns="http://www.w3.org/2000/svg">
<path d="M22.7913 21.8031L17.1112 16.2138C18.5986 14.5978 19.5126 12.4606 19.5126 10.1088C19.5118 5.07781 15.368 1 10.2559 1C5.14384 1 1 5.07781 1 10.1088C1 15.1397 5.14384 19.2175 10.2559 19.2175C12.4647 19.2175 14.4905 18.4535 16.0818 17.1834L21.7839 22.7947C22.0617 23.0684 22.5128 23.0684 22.7906 22.7947C23.0691 22.521 23.0691 22.0768 22.7913 21.8031ZM10.2559 17.8161C5.93054 17.8161 2.42415 14.3654 2.42415 10.1088C2.42415 5.85211 5.93054 2.40143 10.2559 2.40143C14.5813 2.40143 18.0877 5.85211 18.0877 10.1088C18.0877 14.3654 14.5813 17.8161 10.2559 17.8161Z" fill="#0F0200" stroke="#0F0200" stroke-width="0.4"/>
</svg>
