<svg width="18" height="18" viewBox="0 0 18 18" fill="none" xmlns="http://www.w3.org/2000/svg">
<path d="M13.125 10.9688L12.9375 11.2969L18 16.4062L16.4062 18L11.3438 12.8906L11.0156 13.125C9.76562 13.9062 8.46875 14.2969 7.125 14.2969C5.15625 14.2969 3.46875 13.5938 2.0625 12.1875C0.6875 10.7812 0 9.09375 0 7.125C0 5.15625 0.6875 3.48437 2.0625 2.10938C3.46875 0.703125 5.15625 0 7.125 0C9.09375 0 10.7656 0.703125 12.1406 2.10938C13.5469 3.48437 14.25 5.15625 14.25 7.125C14.25 8.5 13.875 9.78125 13.125 10.9688ZM11.1094 3.14062C10.0156 2.04688 8.6875 1.5 7.125 1.5C5.5625 1.5 4.23438 2.04688 3.14062 3.14062C2.04688 4.23438 1.5 5.5625 1.5 7.125C1.5 8.6875 2.04688 10.0156 3.14062 11.1094C4.23438 12.2031 5.5625 12.75 7.125 12.75C8.6875 12.75 10.0156 12.2031 11.1094 11.1094C12.2344 9.98438 12.7969 8.65625 12.7969 7.125C12.7969 5.59375 12.2344 4.26562 11.1094 3.14062Z" fill="white"/>
</svg>
