<svg width="65" height="65" viewBox="0 0 65 65" fill="none" xmlns="http://www.w3.org/2000/svg">
<path d="M63.0866 22.9412C63.0866 16.6163 57.9409 11.4706 51.616 11.4706C50.6686 11.4706 49.7406 11.5838 48.8396 11.8083C46.5474 4.85104 39.9915 0 32.4984 0C25.0053 0 18.4493 4.85104 16.1571 11.8083C15.2562 11.5838 14.3282 11.4706 13.3807 11.4706C7.05586 11.4706 1.91016 16.6163 1.91016 22.9412C1.91016 28.6873 6.15733 33.4597 11.6772 34.2851L15.5166 65H49.4801L53.3195 34.2851C58.8395 33.4597 63.0866 28.6873 63.0866 22.9412ZM15.5464 34.4118H21.1437L22.8165 61.1765H18.892L15.5464 34.4118ZM40.0222 34.4118L38.3494 61.1765H34.4102V34.4118H40.0222ZM30.5866 61.1765H26.6474L24.9746 34.4118H30.5866V61.1765ZM42.1805 61.1765L43.8533 34.4118H49.4505L46.1049 61.1765H42.1805ZM51.616 30.5882H13.3807C9.16416 30.5882 5.73369 27.1578 5.73369 22.9412C5.73369 18.7246 9.16416 15.2941 13.3807 15.2941C14.5275 15.2941 15.6306 15.5421 16.6593 16.0313L18.8916 17.0928L19.3578 14.6654C20.5641 8.38309 26.0907 3.82353 32.4984 3.82353C38.9061 3.82353 44.4326 8.38322 45.639 14.6654L46.1052 17.0928L48.3375 16.0313C49.3661 15.5421 50.4691 15.2941 51.616 15.2941C55.8326 15.2941 59.2631 18.7246 59.2631 22.9412C59.2631 27.1578 55.8326 30.5882 51.616 30.5882Z" fill="#683292"/>
<path d="M24.8516 11.4707H28.6751V15.2942H24.8516V11.4707Z" fill="#683292"/>
<path d="M36.3203 11.4707H40.1438V15.2942H36.3203V11.4707Z" fill="#683292"/>
<path d="M11.4688 21.0293H15.2923V24.8528H11.4688V21.0293Z" fill="#683292"/>
<path d="M22.9414 22.9412H26.7649V26.7647H22.9414V22.9412Z" fill="#683292"/>
<path d="M49.7031 21.0293H53.5267V24.8528H49.7031V21.0293Z" fill="#683292"/>
<path d="M30.5859 19.1177H34.4095V22.9412H30.5859V19.1177Z" fill="#683292"/>
<path d="M38.2344 22.9412H42.0579V26.7647H38.2344V22.9412Z" fill="#683292"/>
</svg>
