<svg width="50" height="50" viewBox="0 0 50 50" fill="none" xmlns="http://www.w3.org/2000/svg">
<g clip-path="url(#clip0_19941_9)">
<path d="M30.8618 26.4661C30.8618 30.5072 27.5741 33.7949 23.533 33.7949C19.4919 33.7949 16.2042 30.5072 16.2042 26.4661C16.2042 22.4249 19.4919 19.1371 23.533 19.1371C25.0249 19.1371 26.4134 19.5863 27.5725 20.355L31.8227 16.1048C31.7268 16.0346 31.6304 15.9648 31.5323 15.8963C28.65 13.8821 25.7627 12.8641 22.9384 12.8641C22.6797 12.8641 22.4217 12.8726 22.1641 12.8897C18.7562 13.1217 15.5814 14.6387 13.2267 17.1613C10.866 19.6861 9.56641 22.9902 9.56641 26.4661C9.56641 30.1954 11.0195 33.7024 13.658 36.3409C16.2967 38.9796 19.8036 40.4326 23.5329 40.4326C27.2622 40.4326 30.7692 38.9795 33.4078 36.3409C36.0463 33.7023 37.4993 30.1954 37.4993 26.4661C37.4993 23.3964 36.2597 20.4493 34.0216 18.0488L29.6437 22.4265C30.4127 23.5856 30.8618 24.9742 30.8618 26.4661Z" fill="white"/>
<path d="M22.498 25.4302L25.4309 22.4974C24.8562 22.2216 24.2128 22.0668 23.5339 22.0668C21.1082 22.0668 19.1348 24.0403 19.1348 26.4661C19.1348 28.8918 21.1082 30.8652 23.5339 30.8652C25.9596 30.8652 27.933 28.8918 27.933 26.4661C27.933 25.7872 27.7782 25.1437 27.5024 24.569L24.5697 27.5017L22.498 25.4302Z" fill="white"/>
<path d="M37.9184 14.1532L36.0957 15.9759C38.8831 18.9271 40.4302 22.6053 40.4302 26.4661C40.4302 30.978 38.6724 35.2206 35.4805 38.4125C32.2885 41.6045 28.0458 43.3624 23.534 43.3624C19.0222 43.3624 14.7795 41.6045 11.5875 38.4125C8.39551 35.2206 6.6377 30.9779 6.6377 26.4661C6.6377 22.2446 8.21787 18.2299 11.0869 15.1613C13.9495 12.0945 17.8145 10.2493 21.9687 9.9666C25.7236 9.71846 29.5049 10.9047 33.2114 13.4949C33.452 13.6631 33.686 13.8363 33.9158 14.0127L35.8469 12.0816L36.1562 6.59424C32.4185 4.20986 28.0746 2.93213 23.5341 2.93213C17.2479 2.93213 11.338 5.38008 6.89307 9.825C2.44795 14.2699 0 20.1799 0 26.466C0 32.7521 2.44795 38.6621 6.89297 43.107C11.338 47.552 17.2479 50 23.534 50C29.8201 50 35.7301 47.5521 40.175 43.107C44.6199 38.662 47.0679 32.7521 47.0679 26.466C47.0679 21.9255 45.79 17.5816 43.4058 13.8439L37.9184 14.1532Z" fill="white"/>
<path d="M38.832 11.1674L44.8182 10.83L49.9994 5.64863L44.3509 0L39.1695 5.18125L38.832 11.1674Z" fill="white"/>
</g>
<defs>
<clipPath id="clip0_19941_9">
<rect width="50" height="50" fill="white"/>
</clipPath>
</defs>
</svg>
