<svg width="21" height="24" viewBox="0 0 21 24" fill="none" xmlns="http://www.w3.org/2000/svg">
<path d="M10.668 1C7.46942 1 4.86719 3.60223 4.86719 6.80078C4.86719 9.99933 7.46942 12.6016 10.668 12.6016C13.8665 12.6016 16.4688 9.99933 16.4688 6.80078C16.4688 3.60223 13.8665 1 10.668 1ZM10.668 11.3125C8.18021 11.3125 6.15625 9.28854 6.15625 6.80078C6.15625 4.31302 8.18021 2.28906 10.668 2.28906C13.1557 2.28906 15.1797 4.31302 15.1797 6.80078C15.1797 9.28854 13.1557 11.3125 10.668 11.3125Z" fill="#0F0200" stroke="#0F0200" stroke-width="0.4"/>
<path d="M17.8853 16.3912C16.2971 14.7787 14.1918 13.8906 11.957 13.8906H9.37891C7.14419 13.8906 5.0388 14.7787 3.45068 16.3912C1.87033 17.9958 1 20.1139 1 22.3555C1 22.7114 1.28858 23 1.64453 23H19.6914C20.0474 23 20.3359 22.7114 20.3359 22.3555C20.3359 20.1139 19.4656 17.9958 17.8853 16.3912ZM2.31742 21.7109C2.64033 18.0549 5.68407 15.1797 9.37891 15.1797H11.957C15.6519 15.1797 18.6956 18.0549 19.0185 21.7109H2.31742Z" fill="#0F0200" stroke="#0F0200" stroke-width="0.4"/>
</svg>
