<svg width="18" height="18" viewBox="0 0 18 18" fill="none" xmlns="http://www.w3.org/2000/svg">
<path d="M1 8.875C1 9.90916 1.20369 10.9332 1.59945 11.8886C1.9952 12.8441 2.57527 13.7122 3.30653 14.4435C4.0378 15.1747 4.90593 15.7548 5.86137 16.1506C6.81681 16.5463 7.84084 16.75 8.875 16.75C9.90916 16.75 10.9332 16.5463 11.8886 16.1506C12.8441 15.7548 13.7122 15.1747 14.4435 14.4435C15.1747 13.7122 15.7548 12.8441 16.1506 11.8886C16.5463 10.9332 16.75 9.90916 16.75 8.875C16.75 7.84084 16.5463 6.81681 16.1506 5.86137C15.7548 4.90593 15.1747 4.0378 14.4435 3.30653C13.7122 2.57527 12.8441 1.9952 11.8886 1.59945C10.9332 1.20369 9.90916 1 8.875 1C7.84084 1 6.81681 1.20369 5.86137 1.59945C4.90593 1.9952 4.0378 2.57527 3.30653 3.30653C2.57527 4.0378 1.9952 4.90593 1.59945 5.86137C1.20369 6.81681 1 7.84084 1 8.875Z" stroke="#F83D8E" stroke-width="1.4" stroke-linecap="round" stroke-linejoin="round"/>
<path d="M6.25 7.125C6.25 7.82119 6.52656 8.48887 7.01884 8.98116C7.51113 9.47344 8.17881 9.75 8.875 9.75C9.57119 9.75 10.2389 9.47344 10.7312 8.98116C11.2234 8.48887 11.5 7.82119 11.5 7.125C11.5 6.42881 11.2234 5.76113 10.7312 5.26884C10.2389 4.77656 9.57119 4.5 8.875 4.5C8.17881 4.5 7.51113 4.77656 7.01884 5.26884C6.52656 5.76113 6.25 6.42881 6.25 7.125Z" stroke="#F83D8E" stroke-width="1.4" stroke-linecap="round" stroke-linejoin="round"/>
<path d="M3.77148 14.8679C3.98805 14.1471 4.43121 13.5153 5.0352 13.0662C5.63919 12.6172 6.37185 12.3748 7.12448 12.375H10.6245C11.3781 12.3747 12.1116 12.6177 12.7161 13.0678C13.3205 13.5179 13.7635 14.1511 13.9792 14.8731" stroke="#F83D8E" stroke-width="1.4" stroke-linecap="round" stroke-linejoin="round"/>
</svg>
