<svg width="50" height="50" viewBox="0 0 50 50" fill="none" xmlns="http://www.w3.org/2000/svg">
<path d="M1.67034 10C2.11231 10 2.53617 9.8244 2.84869 9.51184C3.16121 9.19928 3.33678 8.77536 3.33678 8.33333V3.33333H8.33608C8.77805 3.33333 9.20191 3.15774 9.51443 2.84518C9.82695 2.53262 10.0025 2.10869 10.0025 1.66667C10.0025 1.22464 9.82695 0.800716 9.51443 0.488155C9.20191 0.175595 8.77805 0 8.33608 0H1.67034C1.22838 0 0.804511 0.175595 0.491994 0.488155C0.179477 0.800716 0.00390625 1.22464 0.00390625 1.66667V8.33333C0.00390625 8.77536 0.179477 9.19928 0.491994 9.51184C0.804511 9.8244 1.22838 10 1.67034 10Z" fill="white"/>
<path d="M41.6645 3.33333H46.6638V8.33333C46.6638 8.77536 46.8394 9.19928 47.1519 9.51184C47.4644 9.8244 47.8883 10 48.3302 10C48.7722 10 49.1961 9.8244 49.5086 9.51184C49.8211 9.19928 49.9967 8.77536 49.9967 8.33333V1.66667C49.9967 1.22464 49.8211 0.800716 49.5086 0.488155C49.1961 0.175595 48.7722 0 48.3302 0H41.6645C41.2225 0 40.7987 0.175595 40.4861 0.488155C40.1736 0.800716 39.998 1.22464 39.998 1.66667C39.998 2.10869 40.1736 2.53262 40.4861 2.84518C40.7987 3.15774 41.2225 3.33333 41.6645 3.33333Z" fill="white"/>
<path d="M8.33608 46.6667H3.33678V41.6667C3.33678 41.2246 3.16121 40.8007 2.84869 40.4882C2.53617 40.1756 2.11231 40 1.67034 40C1.22838 40 0.804511 40.1756 0.491994 40.4882C0.179477 40.8007 0.00390625 41.2246 0.00390625 41.6667V48.3333C0.00390625 48.7754 0.179477 49.1993 0.491994 49.5118C0.804511 49.8244 1.22838 50 1.67034 50H8.33608C8.77805 50 9.20191 49.8244 9.51443 49.5118C9.82695 49.1993 10.0025 48.7754 10.0025 48.3333C10.0025 47.8913 9.82695 47.4674 9.51443 47.1548C9.20191 46.8423 8.77805 46.6667 8.33608 46.6667Z" fill="white"/>
<path d="M48.3302 40C47.8883 40 47.4644 40.1756 47.1519 40.4882C46.8394 40.8007 46.6638 41.2246 46.6638 41.6667V46.6667H41.6645C41.2225 46.6667 40.7987 46.8423 40.4861 47.1548C40.1736 47.4674 39.998 47.8913 39.998 48.3333C39.998 48.7754 40.1736 49.1993 40.4861 49.5118C40.7987 49.8244 41.2225 50 41.6645 50H48.3302C48.7722 50 49.1961 49.8244 49.5086 49.5118C49.8211 49.1993 49.9967 48.7754 49.9967 48.3333V41.6667C49.9967 41.2246 49.8211 40.8007 49.5086 40.4882C49.1961 40.1756 48.7722 40 48.3302 40Z" fill="white"/>
<path d="M24.9997 31.6667C28.6811 31.6667 31.6655 28.6819 31.6655 25C31.6655 21.3181 28.6811 18.3334 24.9997 18.3334C21.3183 18.3334 18.334 21.3181 18.334 25C18.334 28.6819 21.3183 31.6667 24.9997 31.6667Z" fill="white"/>
<path d="M49.8132 25.7667C49.9359 25.5298 50 25.2669 50 25C50 24.7332 49.9359 24.4703 49.8132 24.2334C47.5337 19.5615 44.013 15.607 39.6365 12.8025C35.26 9.99813 30.1964 8.45199 25 8.33337C19.8036 8.45199 14.74 9.99813 10.3635 12.8025C5.98703 15.607 2.46631 19.5615 0.186776 24.2334C0.0640538 24.4703 0 24.7332 0 25C0 25.2669 0.0640538 25.5298 0.186776 25.7667C2.46631 30.4386 5.98703 34.3931 10.3635 37.1975C14.74 40.0019 19.8036 41.5481 25 41.6667C30.1964 41.5481 35.26 40.0019 39.6365 37.1975C44.013 34.3931 47.5337 30.4386 49.8132 25.7667ZM25 35C23.0225 35 21.0893 34.4135 19.4451 33.3147C17.8008 32.2159 16.5193 30.6541 15.7625 28.8269C15.0057 26.9996 14.8077 24.9889 15.1935 23.0491C15.5793 21.1093 16.5316 19.3275 17.9299 17.929C19.3282 16.5304 21.1098 15.578 23.0494 15.1922C24.9889 14.8063 26.9993 15.0044 28.8263 15.7612C30.6533 16.5181 32.2149 17.7998 33.3135 19.4443C34.4122 21.0888 34.9986 23.0222 34.9986 25C34.9986 27.6522 33.9452 30.1957 32.0701 32.0711C30.195 33.9465 27.6518 35 25 35Z" fill="white"/>
</svg>
